<?xml version="1.0" encoding="UTF-8" standalone="no"?>
<!-- Created with Inkscape (http://www.inkscape.org/) -->
<svg xmlns:dc="http://purl.org/dc/elements/1.1/" xmlns:cc="http://creativecommons.org/ns#" xmlns:rdf="http://www.w3.org/1999/02/22-rdf-syntax-ns#" xmlns:svg="http://www.w3.org/2000/svg" xmlns="http://www.w3.org/2000/svg" xmlns:sodipodi="http://sodipodi.sourceforge.net/DTD/sodipodi-0.dtd" xmlns:inkscape="http://www.inkscape.org/namespaces/inkscape" width="500" height="500" id="svg2" version="1.1" inkscape:version="0.47 r22583" sodipodi:docname="хунабку.svg">
  <defs id="defs4">
    <inkscape:perspective sodipodi:type="inkscape:persp3d" inkscape:vp_x="0 : 526.18109 : 1" inkscape:vp_y="0 : 1000 : 0" inkscape:vp_z="744.09448 : 526.18109 : 1" inkscape:persp3d-origin="372.04724 : 350.78739 : 1" id="perspective10"/>
    <inkscape:perspective id="perspective2879" inkscape:persp3d-origin="0.5 : 0.33333333 : 1" inkscape:vp_z="1 : 0.5 : 1" inkscape:vp_y="0 : 1000 : 0" inkscape:vp_x="0 : 0.5 : 1" sodipodi:type="inkscape:persp3d"/>
  </defs>
  <sodipodi:namedview id="base" pagecolor="#ffffff" bordercolor="#666666" borderopacity="1.0" inkscape:pageopacity="0.0" inkscape:pageshadow="2" inkscape:zoom="0.49497475" inkscape:cx="352.44074" inkscape:cy="49.529101" inkscape:document-units="px" inkscape:current-layer="layer1" showgrid="false" showguides="false" inkscape:guide-bbox="true" inkscape:window-width="1280" inkscape:window-height="904" inkscape:window-x="-4" inkscape:window-y="-4" inkscape:window-maximized="1" inkscape:snap-global="false">
    <sodipodi:guide orientation="1,0" position="499.7596,78.270399" id="guide2887"/>
    <sodipodi:guide orientation="0,1" position="499.7596,72.462019" id="guide2891"/>
    <sodipodi:guide orientation="0,1" position="502.28499,97.715829" id="guide2893"/>
    <sodipodi:guide orientation="0,1" position="428.03877,44.177749" id="guide2895"/>
    <sodipodi:guide orientation="1,0" position="475.13714,42.662519" id="guide2897"/>
    <sodipodi:guide orientation="1,0" position="433.72088,44.177749" id="guide2899"/>
  </sodipodi:namedview>
  <metadata id="metadata7">
    <rdf:RDF>
      <cc:Work rdf:about="">
        <dc:format>image/svg+xml</dc:format>
        <dc:type rdf:resource="http://purl.org/dc/dcmitype/StillImage"/>
        <dc:title/>
      </cc:Work>
    </rdf:RDF>
  </metadata>
  <g inkscape:label="Layer 1" inkscape:groupmode="layer" id="layer1" transform="translate(-87.896645,-139.69844)">
    <g id="g3740" transform="matrix(-1,0,0,-1,1037.4279,781.41719)">
      <path transform="matrix(1.2889967,0,0,1.2889967,650.05209,58.664826)" d="m 232.33509,258.38229 c 0,107.11524 -86.83406,193.9493 -193.949294,193.9493 -107.115238,0 -193.949296,-86.83406 -193.949296,-193.9493 0,-107.11523 86.834058,-193.949291 193.949296,-193.949291 107.115234,0 193.949294,86.834061 193.949294,193.949291 z" sodipodi:ry="193.9493" sodipodi:rx="193.9493" sodipodi:cy="258.38229" sodipodi:cx="38.385796" id="path3738" style="fill:#ffffff;fill-opacity:1;fill-rule:nonzero;stroke:none" sodipodi:type="arc"/>
      <path sodipodi:nodetypes="csssccsccccssscscsssccccccccccccccccccssssssccccccccccccccccccssscscsssccccssscscsssccccccccccccccccssscscssccsccccccccssscscsssccccssscscsssccccccccccsccccccccssscscsssccccssscscsssccccccc" id="path2885" d="m 699.57447,141.71875 c -138.02632,0 -250.04322,111.93047 -250.04322,249.95678 0,138.02632 112.0169,250.04322 250.04322,250.04322 138.02634,0 249.95678,-112.0169 249.95678,-250.04322 0,-138.02631 -111.93044,-249.95678 -249.95678,-249.95678 z m -26.79344,35.5229 c 2.46392,-0.0401 5.00451,0.59412 7.26016,2.07433 4.51134,2.96043 7.26016,8.93102 7.26016,17.19966 l 0,67.41573 17.6318,0 0,-67.41573 c 0,-8.26864 2.74882,-14.23923 7.26016,-17.19966 4.51133,-2.96042 10.04808,-2.46613 14.17459,-0.17286 4.1265,2.29327 7.31278,6.72081 7.00086,12.10026 -0.31192,5.37946 -4.08176,10.61927 -11.32238,14.77961 -1.88186,1.22288 -4.75373,0.5599 -5.87727,-1.38289 -1.12354,-1.94282 -0.26994,-4.76966 1.7286,-5.79084 5.79588,-3.33021 7.15755,-6.27009 7.26016,-8.03803 0.10261,-1.76794 -1.01302,-3.47226 -2.8522,-4.49438 -1.83919,-1.02212 -3.93907,-1.04502 -5.53155,0 -1.59248,1.04502 -3.54365,3.65229 -3.54365,10.19879 l 0,67.41573 19.10113,0 0,23.68193 17.11322,0 0,21.69404 11.58168,4.8401 87.46758,-112.87813 c 4.30756,3.37223 8.46728,6.89322 12.53242,10.54451 l -97.57995,114.95247 c -7.81066,-5.14282 -26.90025,-13.37357 -48.19114,-14.95247 l -1.03717,-17.19965 -33.44857,0 0,16.24892 c -35.43294,8.34033 -49.70624,38.67591 -53.71033,69.66292 l -19.36041,0 0,31.11495 21.00259,0 c 6.1599,24.81477 27.88342,44.77826 58.94555,46.41314 56.76739,2.98781 66.55596,-82.90791 25.84269,-78.99741 -20.4902,1.9681 -12.48713,19.15937 -12.53241,29.47278 -0.0288,6.58511 -9.51091,14.70639 -18.84183,14.26102 -13.04181,-0.62247 -22.25848,-10.06357 -22.38548,-31.8064 -0.19969,-34.18192 28.68364,-47.5619 49.00605,-47.79602 30.17124,-0.34913 52.82439,15.68829 58.37757,41.15321 l 21.52118,0.69145 -0.69145,30.33708 -18.84183,0 c -3.17572,28.7774 -20.69415,66.29819 -54.01902,75.78714 l -0.34572,16.68107 -32.23854,-0.34572 0.34572,-17.37251 C 664.40879,489.81353 634.92451,474.8216 634.92451,474.8216 l -88.50476,103.9758 c -9.58299,-7.84456 -18.52346,-16.37683 -26.79343,-25.5834 l 104.10084,-85.50251 -6.47702,-6.11374 -34.35675,0 0,-25.8427 -16.07606,0 0,-16.42178 -65.16853,0 c -6.54651,0 -9.15377,1.95117 -10.19879,3.54365 -1.04502,1.59247 -1.02212,3.69236 0,5.53154 1.02211,1.83919 2.72644,2.95482 4.49438,2.85221 1.76794,-0.10261 4.70781,-1.46428 8.03803,-7.26016 1.02118,-1.99854 3.84802,-2.85215 5.79084,-1.72861 1.94279,1.12354 2.60577,3.99541 1.38288,5.87727 -4.16033,7.24063 -9.40014,11.01047 -14.7796,11.32239 -5.37946,0.31192 -9.80699,-2.87436 -12.10026,-7.00087 -2.29327,-4.1265 -2.78757,-9.66325 0.17286,-14.17458 2.96043,-4.51134 8.93102,-7.26016 17.19966,-7.26016 l 65.16853,0 0,-17.63181 -65.16853,0 c -8.26864,0 -14.23923,-2.74882 -17.19966,-7.26015 -2.96043,-4.51134 -2.46613,-10.04809 -0.17286,-14.17459 2.29327,-4.12651 6.7208,-7.31279 12.10026,-7.00087 5.37946,0.31193 10.61927,4.08176 14.7796,11.32239 1.22289,1.88186 0.55991,4.75373 -1.38288,5.87727 -1.94282,1.12354 -4.76966,0.26994 -5.79084,-1.72861 -3.33022,-5.79587 -6.27009,-7.15755 -8.03803,-7.26016 -1.76794,-0.10261 -3.47227,1.01302 -4.49438,2.85221 -1.02212,1.83918 -1.04502,3.93907 0,5.53155 1.04502,1.59247 3.65228,3.54364 10.19879,3.54364 l 65.16853,0 0,-19.27398 19.53328,0 0,-20.91616 21.00259,0 2.07433,-9.0752 -100.25929,-93.172 c 9.51603,-12.13668 20.17709,-23.25296 31.8064,-33.36214 l 89.28263,108.12446 4.66724,-2.50648 -0.34572,-31.46068 25.84269,0 0,-19.53327 18.58254,0 0,-67.41573 c 0,-6.5465 -1.95117,-9.15377 -3.54364,-10.19879 -1.59248,-1.04502 -3.69237,-1.02212 -5.53155,0 -1.83918,1.02212 -2.95481,2.72644 -2.8522,4.49438 0.10261,1.76794 1.46428,4.70782 7.26015,8.03803 1.99855,1.02118 2.85215,3.84802 1.72861,5.79084 -1.12354,1.94279 -3.99541,2.60577 -5.87727,1.38289 -7.24063,-4.16034 -11.01046,-9.40015 -11.32238,-14.77961 -0.31193,-5.37945 2.87435,-9.80699 7.00086,-12.10026 2.06324,-1.14663 4.45052,-1.86136 6.91443,-1.90147 z m 215.38462,63.26707 c 33.19426,41.38195 53.06828,93.93972 53.06828,151.16681 0,59.33846 -21.34605,113.68467 -56.78479,155.74763 l -95.50562,-81.67675 2.07433,-9.0752 21.0026,0 0,-20.91616 19.53327,0 0,-19.27398 65.16854,0 c 6.5465,0 9.15377,1.95117 10.19879,3.54364 1.04502,1.59248 1.02212,3.69237 0,5.53155 -1.02212,1.83918 -2.72644,2.95481 -4.49438,2.8522 -1.76794,-0.10261 -4.70782,-1.46428 -8.03803,-7.26015 -1.02118,-1.99849 -3.84802,-2.85215 -5.79084,-1.72861 -1.94279,1.12354 -2.60577,3.99541 -1.38289,5.87727 4.16034,7.24063 9.40015,11.01046 14.77961,11.32239 5.37945,0.31192 9.80699,-2.87436 12.10026,-7.00087 2.29327,-4.12651 2.78756,-9.66325 -0.17286,-14.17459 -2.96043,-4.51133 -8.93102,-7.26015 -17.19966,-7.26015 l -65.16854,0 0,-17.63181 65.16854,0 c 8.26864,0 14.23923,-2.74882 17.19966,-7.26016 2.96042,-4.51133 2.46613,-10.04808 0.17286,-14.17459 -2.29327,-4.1265 -6.72081,-7.31278 -12.10026,-7.00086 -5.37946,0.31192 -10.61927,4.08176 -14.77961,11.32239 -1.22288,1.88186 -0.5599,4.75372 1.38289,5.87726 1.94282,1.12354 4.76966,0.26994 5.79084,-1.7286 3.33021,-5.79588 6.27009,-7.15766 8.03803,-7.26016 1.76794,-0.10261 3.47226,1.01302 4.49438,2.8522 1.02212,1.83919 1.04502,3.93907 0,5.53155 -1.04502,1.59248 -3.65229,3.54365 -10.19879,3.54365 l -65.16854,0 0,-16.42178 -16.07606,0 0,-25.8427 -34.18214,0 -6.30239,-4.89143 113.17252,-94.58999 z m -120.05186,243.64737 81.59032,97.06136 c -41.21547,32.70517 -93.39558,52.20398 -150.12964,52.20398 -51.73402,0 -99.65697,-16.25639 -138.98013,-43.90666 l 76.75022,-102.07433 11.58168,4.84011 0,21.69403 17.11322,0 0,23.68194 19.10112,0 0,67.41573 c 0,6.5465 -1.95117,9.15377 -3.54364,10.19879 -1.59248,1.04502 -3.69237,1.02212 -5.53155,0 -1.83918,-1.02212 -2.95481,-2.72644 -2.8522,-4.49438 0.10261,-1.76794 1.46428,-4.70782 7.26015,-8.03803 1.99849,-1.02118 2.85215,-3.84802 1.72861,-5.79084 -1.12354,-1.94279 -3.99541,-2.60577 -5.87727,-1.38289 -7.24063,4.16034 -11.01046,9.40015 -11.32238,14.77961 -0.31193,5.37945 2.87435,9.80699 7.00086,12.10026 4.12651,2.29326 9.66325,2.78756 14.17459,-0.17287 4.51134,-2.96042 7.26016,-8.93101 7.26016,-17.19965 l 0,-67.41573 17.6318,0 0,67.41573 c 0,8.26864 2.74882,14.23923 7.26016,17.19965 4.51133,2.96043 10.04808,2.46613 14.17459,0.17287 4.1265,-2.29327 7.31278,-6.72081 7.00086,-12.10026 -0.31192,-5.37946 -4.08176,-10.61927 -11.32238,-14.77961 -1.88186,-1.22288 -4.75373,-0.5599 -5.87727,1.38289 -1.12354,1.94282 -0.26994,4.76966 1.72861,5.79084 5.79587,3.33021 7.15765,6.27009 7.26015,8.03803 0.10261,1.76794 -1.01302,3.47226 -2.8522,4.49438 -1.83919,1.02212 -3.93907,1.04502 -5.53155,0 -1.59248,-1.04502 -3.54365,-3.65229 -3.54365,-10.19879 l 0,-67.41573 18.58254,0 0,-19.53328 25.8427,0 -0.34572,-31.46067 4.66724,-2.50648 z" style="fill:#000000;stroke:none"/>
    </g>
  </g>
</svg>