<?xml version="1.0" standalone="no"?>
<!DOCTYPE svg PUBLIC "-//W3C//DTD SVG 20010904//EN"
 "http://www.w3.org/TR/2001/REC-SVG-20010904/DTD/svg10.dtd">
<svg version="1.0" xmlns="http://www.w3.org/2000/svg"
 width="700.000000pt" height="700.000000pt" viewBox="0 0 700.000000 700.000000"
 preserveAspectRatio="xMidYMid meet">
<metadata>
Created by potrace 1.14, written by Peter Selinger 2001-2017
</metadata>
<g transform="translate(0.000000,700.000000) scale(0.100000,-0.100000)"
fill="#000000" stroke="none">
<path d="M3200 6990 c-294 -30 -534 -79 -787 -161 -570 -185 -1104 -532 -1509
-980 -482 -533 -783 -1190 -880 -1919 -20 -147 -27 -630 -11 -765 54 -464 165
-852 349 -1218 550 -1098 1620 -1830 2828 -1935 167 -14 719 -5 750 12 3 2 28
6 57 10 242 29 609 131 867 241 1032 441 1792 1342 2044 2425 27 116 33 142
46 225 36 219 41 301 40 605 0 290 -12 413 -64 670 -152 752 -548 1430 -1135
1944 -111 97 -419 326 -438 326 -2 0 -42 23 -88 51 -178 108 -419 218 -641
294 -123 42 -361 107 -442 119 -21 4 -48 8 -60 11 -38 9 -80 15 -156 25 -41 5
-93 12 -115 15 -65 9 -573 13 -655 5z"/>
</g>
</svg>
